# xmcd CD database file
#
# Track frame offsets:
#	150
#	12910
#	22017
#	34310
#	45205
#	57085
#	64510
#	75250
#	94443
#	107266
#	124710
#	136196
#	152433
#	160300
#
# Disc length: 2332 seconds
#
# Revision: 0
# Processed by: cddbd v1.5.2PL0 Copyright (c) Steve Scherf et al.
# Submitted via: CDex 1.51
#
DISCID=9d091a0e
DTITLE=Sergio Reis - Bis, Jovem Guarda CD01
DYEAR=1900
DGENRE=Country
TTITLE0=Qual a razão
TTITLE1=Lana
TTITLE2=Anjo Triste
TTITLE3=Pobre Coração, Não É Feliz
TTITLE4=Quero Encontrar a Paz
TTITLE5=Agora Quem Não Quer Sou Eu
TTITLE6=Até Hoje Não Entendi
TTITLE7=Água de Mina
TTITLE8=Nuvem Branquinha
TTITLE9=Distância Danada
TTITLE10=É Mentira o Que Você Ouviu
TTITLE11=Quando Um Homem Ama Uma Mulher
TTITLE12=Pra Onde Foi Você
TTITLE13=Menina
EXTD=
EXTT0=
EXTT1=
EXTT2=
EXTT3=
EXTT4=
EXTT5=
EXTT6=
EXTT7=
EXTT8=
EXTT9=
EXTT10=
EXTT11=
EXTT12=
EXTT13=
PLAYORDER=
